<svg aria-hidden="true" style="position: absolute; width: 0; height: 0; overflow: hidden;" version="1.1" xmlns="http://www.w3.org/2000/svg" xmlns:xlink="http://www.w3.org/1999/xlink">
<defs>
<symbol id="icon-Logo-3" viewBox="0 0 30 16">
<path fill="#8e8f99" style="fill: var(--color1, #8e8f99)" d="M15.294 7.841c-0.127-0.169-0.188-0.368-0.173-0.569v-0.825c0-0.253 0.057-0.445 0.172-0.577s0.312-0.197 0.591-0.196c0.263 0 0.449 0.056 0.559 0.168 0.12 0.143 0.179 0.317 0.165 0.494v0.194h-0.47v-0.196c0.002-0.064-0.003-0.129-0.014-0.192-0.007-0.044-0.030-0.084-0.067-0.114-0.048-0.033-0.109-0.049-0.17-0.044-0.064-0.004-0.128 0.013-0.179 0.047-0.041 0.034-0.068 0.078-0.078 0.126-0.013 0.067-0.020 0.136-0.018 0.204v1.001c-0.007 0.097 0.013 0.193 0.060 0.281 0.023 0.030 0.056 0.053 0.094 0.068s0.080 0.020 0.121 0.016c0.060 0.004 0.12-0.012 0.166-0.045 0.038-0.033 0.063-0.076 0.070-0.122 0.011-0.066 0.016-0.134 0.015-0.201v-0.203h0.47v0.186c0.013 0.184-0.044 0.366-0.162 0.519-0.108 0.123-0.292 0.184-0.562 0.184s-0.475-0.065-0.59-0.201z"></path>
<path fill="#8e8f99" style="fill: var(--color1, #8e8f99)" d="M17.25 7.849c-0.119-0.128-0.178-0.316-0.178-0.563v-0.868c0-0.245 0.059-0.431 0.178-0.557s0.317-0.189 0.595-0.188c0.276 0 0.474 0.063 0.592 0.188s0.179 0.311 0.179 0.557v0.868c0 0.245-0.060 0.433-0.181 0.562s-0.317 0.194-0.59 0.194-0.476-0.065-0.595-0.193zM18.065 7.641c0.043-0.080 0.062-0.169 0.056-0.257v-1.063c0.005-0.087-0.014-0.173-0.055-0.252-0.024-0.030-0.057-0.054-0.096-0.069s-0.082-0.020-0.124-0.015c-0.042-0.005-0.085 0-0.124 0.015s-0.072 0.039-0.097 0.069c-0.043 0.079-0.062 0.165-0.056 0.252v1.068c-0.006 0.088 0.013 0.177 0.056 0.257 0.027 0.027 0.061 0.049 0.099 0.064s0.079 0.023 0.121 0.023 0.083-0.008 0.121-0.023c0.038-0.015 0.072-0.037 0.099-0.064v-0.005z"></path>
<path fill="#8e8f99" style="fill: var(--color1, #8e8f99)" d="M19.182 5.699h0.506l0.38 1.601 0.389-1.601h0.492l0.050 2.312h-0.364l-0.039-1.607-0.376 1.607h-0.292l-0.389-1.612-0.036 1.612h-0.368l0.046-2.312z"></path>
<path fill="#8e8f99" style="fill: var(--color1, #8e8f99)" d="M21.567 5.699h0.788c0.454 0 0.681 0.219 0.681 0.656 0 0.419-0.239 0.628-0.717 0.628h-0.268v1.027h-0.486l0.003-2.312zM22.24 6.687c0.048 0.005 0.097 0.001 0.143-0.011s0.089-0.034 0.124-0.062c0.056-0.078 0.080-0.17 0.070-0.261 0.003-0.071-0.005-0.141-0.023-0.21-0.007-0.023-0.019-0.045-0.036-0.063s-0.038-0.035-0.061-0.047c-0.068-0.028-0.142-0.041-0.217-0.037h-0.189v0.691h0.189z"></path>
<path fill="#8e8f99" style="fill: var(--color1, #8e8f99)" d="M23.737 5.699h0.522l0.536 2.312h-0.453l-0.106-0.533h-0.466l-0.109 0.533h-0.46l0.536-2.312zM24.183 7.21l-0.182-0.97-0.182 0.97h0.364z"></path>
<path fill="#8e8f99" style="fill: var(--color1, #8e8f99)" d="M25.228 5.699h0.34l0.652 1.319v-1.319h0.404v2.312h-0.324l-0.656-1.377v1.377h-0.417l0.001-2.312z"></path>
<path fill="#8e8f99" style="fill: var(--color1, #8e8f99)" d="M27.569 7.129l-0.542-1.427h0.456l0.331 0.917 0.31-0.917h0.446l-0.535 1.427v0.881h-0.467v-0.881z"></path>
<path fill="#8e8f99" style="fill: var(--color1, #8e8f99)" d="M16.045 9.021v0.121h-0.397v0.939h-0.166v-0.939h-0.399v-0.121h0.962z"></path>
<path fill="#8e8f99" style="fill: var(--color1, #8e8f99)" d="M17.289 10.081h-0.128c-0.013 0.001-0.026-0.003-0.036-0.010-0.010-0.006-0.017-0.015-0.021-0.024l-0.115-0.252h-0.551l-0.115 0.252c-0.003 0.011-0.009 0.020-0.017 0.029-0.010 0.007-0.023 0.011-0.036 0.010h-0.128l0.486-1.060h0.169l0.492 1.056zM16.484 9.688h0.459l-0.195-0.431c-0.014-0.033-0.026-0.066-0.036-0.1-0.007 0.020-0.013 0.039-0.018 0.056l-0.017 0.044-0.193 0.431z"></path>
<path fill="#8e8f99" style="fill: var(--color1, #8e8f99)" d="M18.128 9.977c0.030 0.001 0.061 0.001 0.091 0 0.026-0.002 0.052-0.007 0.078-0.013 0.024-0.005 0.047-0.011 0.070-0.019 0.021-0.008 0.043-0.017 0.065-0.026v-0.238h-0.195c-0.005 0-0.010-0-0.014-0.002s-0.009-0.004-0.012-0.007c-0.003-0.002-0.006-0.005-0.007-0.009s-0.002-0.007-0.002-0.011v-0.081h0.377v0.406c-0.031 0.019-0.063 0.036-0.097 0.050s-0.071 0.027-0.108 0.036c-0.040 0.010-0.080 0.017-0.122 0.022-0.047 0.005-0.095 0.007-0.142 0.007-0.084 0.001-0.167-0.013-0.245-0.039-0.073-0.025-0.139-0.063-0.195-0.111-0.054-0.048-0.097-0.105-0.125-0.168-0.031-0.070-0.046-0.145-0.045-0.22-0.001-0.076 0.014-0.151 0.044-0.222 0.028-0.063 0.071-0.12 0.125-0.168s0.122-0.085 0.195-0.11c0.083-0.027 0.172-0.040 0.261-0.039 0.045-0 0.090 0.003 0.135 0.009 0.040 0.006 0.078 0.015 0.116 0.027 0.034 0.011 0.067 0.025 0.097 0.042s0.058 0.035 0.085 0.055l-0.047 0.065c-0.004 0.006-0.009 0.011-0.016 0.015s-0.014 0.005-0.022 0.006c-0.011-0-0.021-0.003-0.030-0.008-0.015-0.007-0.030-0.015-0.048-0.025-0.021-0.011-0.042-0.021-0.065-0.029-0.029-0.010-0.059-0.018-0.090-0.024-0.041-0.006-0.082-0.010-0.124-0.009-0.064-0.001-0.128 0.009-0.188 0.029-0.054 0.019-0.103 0.047-0.143 0.084-0.040 0.038-0.071 0.083-0.090 0.132-0.043 0.115-0.043 0.239 0 0.353 0.021 0.050 0.054 0.095 0.097 0.133 0.040 0.036 0.088 0.065 0.142 0.084 0.062 0.018 0.127 0.025 0.193 0.021v0z"></path>
<path fill="#8e8f99" style="fill: var(--color1, #8e8f99)" d="M19.678 9.96h0.531v0.121h-0.694v-1.060h0.166l-0.004 0.939z"></path>
<path fill="#8e8f99" style="fill: var(--color1, #8e8f99)" d="M20.762 10.081h-0.166v-1.060h0.166v1.060z"></path>
<path fill="#8e8f99" style="fill: var(--color1, #8e8f99)" d="M21.381 9.026c0.010 0.005 0.019 0.011 0.025 0.019l0.711 0.799c-0.001-0.013-0.001-0.025 0-0.038s0-0.024 0-0.034v-0.755h0.145v1.064h-0.084c-0.012 0.001-0.025-0.001-0.036-0.006-0.010-0.005-0.019-0.012-0.026-0.020l-0.71-0.798c0 0.013 0 0.024 0 0.036s0 0.023 0 0.033v0.756h-0.139v-1.060h0.087c0.009 0 0.019 0.002 0.027 0.005v0z"></path>
<path fill="#8e8f99" style="fill: var(--color1, #8e8f99)" d="M23.487 9.021v0.117h-0.589v0.35h0.478v0.112h-0.478v0.362h0.589v0.117h-0.761v-1.058h0.761z"></path>
<path fill="#8e8f99" style="fill: var(--color1, #8e8f99)" d="M6.056 2.474l7.386 1.81v6.342l-7.386-1.809v-6.342zM5.582 1.933v7.191l8.333 2.042v-7.19l-8.333-2.043z"></path>
<path fill="#8e8f99" style="fill: var(--color1, #8e8f99)" d="M10.048 14.505l-8.334-2.044v-7.19l8.334 2.043v7.191z"></path>
<path fill="#8e8f99" style="fill: var(--color1, #8e8f99)" d="M5.72 2.392l7.29 1.787-3.1 2.676-7.291-1.788 3.101-2.675zM5.582 1.933l-3.868 3.337 8.334 2.043 3.867-3.337-8.333-2.043z"></path>
<path fill="#8e8f99" style="fill: var(--color1, #8e8f99)" d="M10.517 14.1l3.398-2.933-3.398-0.833v3.766z"></path>
</symbol>
<symbol id="icon-Logo-2" viewBox="0 0 30 16">
<path fill="#8e8f99" style="fill: var(--color1, #8e8f99)" d="M7.655 12.678c0.070 0.078 0.107 0.176 0.106 0.276 0.004 0.066-0.009 0.131-0.038 0.191s-0.071 0.114-0.126 0.158c-0.136 0.093-0.305 0.138-0.475 0.128h-0.836v-1.752h0.819c0.162-0.010 0.322 0.031 0.454 0.116 0.053 0.040 0.095 0.090 0.122 0.147s0.040 0.119 0.036 0.181c0.005 0.097-0.029 0.192-0.095 0.268-0.064 0.070-0.151 0.118-0.249 0.137 0.111 0.018 0.211 0.071 0.282 0.15v0zM6.675 12.414h0.35c0.080 0.005 0.159-0.015 0.222-0.058 0.026-0.021 0.047-0.048 0.060-0.078s0.018-0.062 0.015-0.093c0.002-0.032-0.003-0.064-0.016-0.093s-0.033-0.056-0.058-0.078c-0.066-0.044-0.147-0.065-0.229-0.059h-0.344v0.46zM7.281 13.085c0.028-0.022 0.050-0.049 0.065-0.080s0.021-0.064 0.018-0.098c0.002-0.034-0.004-0.068-0.019-0.099s-0.037-0.059-0.066-0.081c-0.068-0.046-0.153-0.068-0.238-0.063h-0.367v0.482h0.372c0.084 0.004 0.166-0.017 0.235-0.061v0z"></path>
<path fill="#8e8f99" style="fill: var(--color1, #8e8f99)" d="M9.328 13.431l-0.455-0.685h-0.171v0.685h-0.392v-1.752h0.742c0.187-0.012 0.372 0.042 0.516 0.149 0.104 0.095 0.166 0.22 0.176 0.353s-0.033 0.265-0.121 0.372c-0.092 0.094-0.216 0.157-0.354 0.178l0.485 0.7h-0.426zM8.702 12.508h0.32c0.222 0 0.334-0.088 0.334-0.265 0.002-0.036-0.004-0.072-0.018-0.106s-0.036-0.065-0.064-0.091c-0.070-0.053-0.161-0.078-0.252-0.071h-0.324l0.004 0.533z"></path>
<path fill="#8e8f99" style="fill: var(--color1, #8e8f99)" d="M11.469 13.079h-0.781l-0.138 0.353h-0.411l0.717-1.732h0.444l0.714 1.732h-0.411l-0.135-0.353zM11.365 12.813l-0.285-0.74-0.285 0.74h0.57z"></path>
<path fill="#8e8f99" style="fill: var(--color1, #8e8f99)" d="M14.15 13.431h-0.389l-0.872-1.191v1.191h-0.388v-1.752h0.388l0.872 1.198v-1.198h0.389v1.752z"></path>
<path fill="#8e8f99" style="fill: var(--color1, #8e8f99)" d="M16.369 13.012c-0.080 0.132-0.203 0.24-0.352 0.309-0.169 0.077-0.357 0.115-0.547 0.11h-0.692v-1.752h0.692c0.189-0.004 0.377 0.033 0.547 0.108 0.149 0.068 0.271 0.174 0.352 0.306 0.080 0.142 0.122 0.3 0.122 0.46s-0.042 0.317-0.122 0.46v0zM15.924 12.97c0.111-0.116 0.172-0.265 0.172-0.418s-0.061-0.302-0.172-0.418c-0.134-0.105-0.309-0.159-0.487-0.149h-0.27v1.134h0.27c0.178 0.010 0.353-0.043 0.487-0.149z"></path>
<path fill="#8e8f99" style="fill: var(--color1, #8e8f99)" d="M11.713 1.933c0 0 5.019 1.706 4.913 4.174v4.175c0 0-5.015-1.707-4.911-4.175l-0.002-4.174z"></path>
<path fill="#8e8f99" style="fill: var(--color1, #8e8f99)" d="M21.097 9.306c0.948-0.587 2.044-0.951 3.189-1.058v-1.307c-1.319 0.458-2.438 1.287-3.189 2.365v0z"></path>
<path fill="#8e8f99" style="fill: var(--color1, #8e8f99)" d="M20.527 9.699c0.776-1.406 2.121-2.492 3.758-3.033v-3.766c0 0-7.148 2.43-6.997 5.945v5.945c0 0 0.319-0.109 0.82-0.312 0-0.19 0-0.382 0.023-0.574 0.148-1.632 1.010-3.144 2.396-4.204v0z"></path>
<path fill="#8e8f99" style="fill: var(--color1, #8e8f99)" d="M19.848 11.908c0.038-0.412 0.121-0.82 0.25-1.217-0.863 0.915-1.386 2.051-1.495 3.248-0.010 0.113-0.016 0.226-0.019 0.342 0.406-0.175 0.879-0.395 1.375-0.652-0.127-0.566-0.164-1.146-0.111-1.721v0z"></path>
<path fill="#8e8f99" style="fill: var(--color1, #8e8f99)" d="M20.132 11.929c-0.048 0.521-0.018 1.045 0.088 1.559 1.953-1.052 4.147-2.677 4.063-4.642v-0.171c-1.395 0.141-2.701 0.69-3.716 1.563-0.238 0.541-0.384 1.111-0.435 1.691v0z"></path>
</symbol>
<symbol id="icon-Client-4" viewBox="0 0 31 16">
<path fill="#8e8f99" style="fill: var(--color1, #8e8f99)" d="M10.196 6.821h-0.001c-0.434 0-0.785 0.317-0.785 0.708v0c0 0.391 0.352 0.708 0.785 0.708h0.001c0.434 0 0.785-0.317 0.785-0.708v-0c0-0.391-0.352-0.708-0.785-0.708z"></path>
<path fill="#8e8f99" style="fill: var(--color1, #8e8f99)" d="M15.993 6.595c-0.001-0.543-0.241-1.064-0.667-1.448s-1.003-0.6-1.606-0.602v0c-0.603 0.001-1.18 0.217-1.606 0.601s-0.666 0.905-0.667 1.448v0 2.995c0 0 4.546-0.457 4.547-2.995v-0z"></path>
<path fill="#8e8f99" style="fill: var(--color1, #8e8f99)" d="M7.818 10.574c0.001 0.378 0.168 0.74 0.464 1.007s0.698 0.418 1.117 0.419v0c0.419-0.001 0.821-0.152 1.117-0.419s0.463-0.629 0.465-1.007v0-2.084c0 0-3.163 0.318-3.163 2.084zM9.4 10.947c-0.082 0-0.162-0.022-0.23-0.063s-0.121-0.099-0.153-0.168-0.040-0.143-0.024-0.216c0.016-0.072 0.055-0.139 0.113-0.191s0.132-0.088 0.212-0.102c0.080-0.014 0.164-0.007 0.239 0.021s0.14 0.076 0.186 0.138c0.046 0.061 0.070 0.134 0.070 0.207 0 0.049-0.010 0.098-0.031 0.143s-0.051 0.087-0.090 0.122c-0.038 0.035-0.084 0.062-0.135 0.081s-0.104 0.029-0.159 0.029v-0.001z"></path>
<path fill="#8e8f99" style="fill: var(--color1, #8e8f99)" d="M12.293 10.275v0.776h-0.16v-0.776h0.16zM12.601 10.607v0.125h-0.353v-0.125h0.353zM12.639 10.275v0.125h-0.39v-0.125h0.39zM13.369 10.645v0.037c0 0.059-0.008 0.112-0.024 0.159s-0.039 0.087-0.068 0.12c-0.029 0.033-0.064 0.058-0.104 0.075s-0.085 0.026-0.134 0.026c-0.049 0-0.093-0.009-0.134-0.026s-0.075-0.042-0.104-0.075c-0.029-0.033-0.052-0.073-0.069-0.12s-0.024-0.1-0.024-0.159v-0.037c0-0.059 0.008-0.112 0.024-0.159s0.039-0.087 0.068-0.12c0.029-0.033 0.064-0.058 0.104-0.076s0.085-0.026 0.134-0.026c0.049 0 0.094 0.009 0.134 0.026s0.075 0.043 0.104 0.076c0.029 0.033 0.052 0.073 0.068 0.12s0.025 0.099 0.025 0.159zM13.207 10.682v-0.038c0-0.041-0.004-0.077-0.011-0.109s-0.018-0.058-0.033-0.079-0.032-0.037-0.053-0.048c-0.021-0.011-0.045-0.017-0.072-0.017s-0.051 0.006-0.072 0.017c-0.021 0.011-0.038 0.027-0.053 0.048s-0.025 0.048-0.032 0.079c-0.007 0.031-0.011 0.067-0.011 0.109v0.038c0 0.041 0.004 0.077 0.011 0.109s0.018 0.058 0.033 0.079c0.015 0.021 0.032 0.037 0.053 0.048s0.045 0.017 0.072 0.017c0.027 0 0.051-0.006 0.072-0.017s0.039-0.027 0.053-0.048c0.014-0.022 0.025-0.048 0.032-0.079s0.011-0.068 0.011-0.109zM13.887 10.848c0-0.014-0.002-0.026-0.006-0.037s-0.011-0.022-0.022-0.031c-0.011-0.010-0.026-0.019-0.046-0.028s-0.046-0.019-0.077-0.029c-0.035-0.011-0.069-0.024-0.1-0.038s-0.059-0.031-0.083-0.050c-0.024-0.019-0.043-0.041-0.056-0.067s-0.020-0.055-0.020-0.088c0-0.032 0.007-0.062 0.021-0.088s0.034-0.049 0.060-0.068c0.026-0.019 0.056-0.034 0.091-0.044s0.074-0.015 0.116-0.015c0.057 0 0.107 0.010 0.15 0.031s0.076 0.049 0.099 0.085c0.024 0.036 0.036 0.077 0.036 0.123h-0.159c0-0.023-0.005-0.043-0.014-0.060s-0.023-0.031-0.043-0.041c-0.019-0.010-0.043-0.015-0.071-0.015-0.028 0-0.051 0.004-0.069 0.013s-0.032 0.019-0.042 0.034c-0.009 0.014-0.014 0.029-0.014 0.047 0 0.013 0.003 0.025 0.010 0.036s0.017 0.021 0.030 0.030 0.029 0.018 0.048 0.026c0.019 0.008 0.041 0.016 0.067 0.024 0.042 0.013 0.079 0.027 0.111 0.043s0.059 0.034 0.081 0.054c0.022 0.020 0.038 0.042 0.049 0.068s0.017 0.054 0.017 0.086c0 0.034-0.007 0.064-0.020 0.091s-0.032 0.049-0.057 0.068c-0.025 0.018-0.055 0.032-0.089 0.042s-0.073 0.014-0.116 0.014c-0.038 0-0.076-0.005-0.113-0.015s-0.071-0.026-0.102-0.046c-0.030-0.021-0.054-0.047-0.072-0.079s-0.027-0.070-0.027-0.113h0.16c0 0.024 0.004 0.045 0.011 0.061s0.018 0.030 0.031 0.040c0.014 0.010 0.030 0.018 0.049 0.022s0.040 0.007 0.063 0.007c0.028 0 0.050-0.004 0.068-0.012s0.031-0.019 0.040-0.033c0.009-0.014 0.013-0.029 0.013-0.047zM14.503 10.275v0.776h-0.159v-0.776h0.159zM14.741 10.275v0.125h-0.633v-0.125h0.633zM15.353 10.926v0.125h-0.413v-0.125h0.413zM14.992 10.275v0.776h-0.16v-0.776h0.16zM15.299 10.591v0.121h-0.359v-0.121h0.359zM15.352 10.275v0.125h-0.412v-0.125h0.412zM15.446 10.275h0.289c0.059 0 0.11 0.009 0.153 0.027s0.076 0.044 0.099 0.079 0.035 0.078 0.035 0.128c0 0.042-0.007 0.077-0.021 0.107s-0.034 0.054-0.059 0.074c-0.025 0.020-0.055 0.035-0.089 0.047l-0.051 0.027h-0.251l-0.001-0.125h0.187c0.028 0 0.051-0.005 0.070-0.015s0.032-0.024 0.042-0.042c0.010-0.018 0.014-0.038 0.014-0.062 0-0.025-0.005-0.046-0.014-0.064s-0.023-0.032-0.042-0.042-0.042-0.014-0.071-0.014h-0.129v0.65h-0.16v-0.776zM15.88 11.051l-0.177-0.346 0.169-0.001 0.179 0.339v0.007h-0.171zM16.718 10.775h-0.198v-0.125h0.198c0.031 0 0.055-0.005 0.075-0.015s0.033-0.025 0.042-0.043c0.009-0.018 0.013-0.039 0.013-0.061s-0.004-0.045-0.013-0.064c-0.009-0.020-0.023-0.036-0.042-0.048s-0.044-0.018-0.075-0.018h-0.142v0.65h-0.16v-0.776h0.302c0.061 0 0.113 0.011 0.156 0.033s0.077 0.052 0.1 0.090c0.023 0.038 0.035 0.082 0.035 0.132s-0.012 0.093-0.035 0.13c-0.023 0.037-0.056 0.065-0.1 0.085s-0.095 0.030-0.156 0.030zM17.64 10.926v0.125h-0.413v-0.125h0.413zM17.279 10.275v0.776h-0.16v-0.776h0.16zM17.586 10.591v0.121h-0.359v-0.121h0.359zM17.639 10.275v0.125h-0.412v-0.125h0.412zM18.091 10.275v0.776h-0.159v-0.776h0.159zM18.329 10.275v0.125h-0.633v-0.125h0.633zM18.941 10.926v0.125h-0.413v-0.125h0.413zM18.58 10.275v0.776h-0.16v-0.776h0.16zM18.887 10.591v0.121h-0.359v-0.121h0.359zM18.94 10.275v0.125h-0.412v-0.125h0.412zM19.034 10.275h0.289c0.059 0 0.11 0.009 0.153 0.027s0.076 0.044 0.099 0.079 0.035 0.078 0.035 0.128c0 0.042-0.007 0.077-0.021 0.107s-0.034 0.054-0.059 0.074c-0.025 0.020-0.055 0.035-0.089 0.047l-0.051 0.027h-0.251l-0.001-0.125h0.187c0.028 0 0.051-0.005 0.070-0.015s0.032-0.024 0.042-0.042c0.010-0.018 0.014-0.038 0.014-0.062 0-0.025-0.005-0.046-0.014-0.064s-0.023-0.032-0.042-0.042c-0.019-0.010-0.042-0.014-0.071-0.014h-0.129v0.65h-0.16v-0.776zM19.468 11.051l-0.177-0.346 0.169-0.001 0.179 0.339v0.007h-0.171zM20.137 10.848c0-0.014-0.002-0.026-0.006-0.037s-0.011-0.022-0.022-0.031c-0.011-0.010-0.026-0.019-0.046-0.028s-0.046-0.019-0.077-0.029c-0.035-0.011-0.069-0.024-0.1-0.038s-0.059-0.031-0.083-0.050c-0.024-0.019-0.043-0.041-0.057-0.067s-0.020-0.055-0.020-0.088c0-0.032 0.007-0.062 0.021-0.088s0.034-0.049 0.060-0.068c0.026-0.019 0.056-0.034 0.091-0.044s0.074-0.015 0.116-0.015c0.057 0 0.107 0.010 0.15 0.031s0.076 0.049 0.099 0.085c0.024 0.036 0.036 0.077 0.036 0.123h-0.159c0-0.023-0.005-0.043-0.014-0.060s-0.023-0.031-0.043-0.041c-0.019-0.010-0.043-0.015-0.071-0.015-0.028 0-0.051 0.004-0.069 0.013s-0.032 0.019-0.041 0.034c-0.009 0.014-0.014 0.029-0.014 0.047 0 0.013 0.003 0.025 0.010 0.036s0.017 0.021 0.030 0.030c0.013 0.009 0.029 0.018 0.048 0.026s0.041 0.016 0.067 0.024c0.042 0.013 0.079 0.027 0.111 0.043s0.059 0.034 0.081 0.054 0.038 0.042 0.049 0.068c0.011 0.025 0.016 0.054 0.016 0.086 0 0.034-0.007 0.064-0.020 0.091s-0.032 0.049-0.057 0.068c-0.025 0.018-0.054 0.032-0.089 0.042s-0.073 0.014-0.116 0.014c-0.038 0-0.076-0.005-0.113-0.015s-0.071-0.026-0.102-0.046c-0.030-0.021-0.054-0.047-0.073-0.079s-0.027-0.070-0.027-0.113h0.16c0 0.024 0.004 0.045 0.011 0.061s0.018 0.030 0.031 0.040c0.014 0.010 0.030 0.018 0.049 0.022s0.040 0.007 0.063 0.007c0.028 0 0.051-0.004 0.068-0.012s0.031-0.019 0.040-0.033c0.009-0.014 0.013-0.029 0.013-0.047z"></path>
</symbol>
<symbol id="icon-Client-3" viewBox="0 0 31 16">
<path fill="#8e8f99" style="fill: var(--color1, #8e8f99)" d="M12.511 11.859c0.003 0 0.006 0.001 0.008 0.002s0.005 0.003 0.007 0.004l0.040 0.038c-0.031 0.031-0.070 0.055-0.113 0.072-0.051 0.018-0.105 0.027-0.16 0.026-0.052 0.001-0.103-0.007-0.151-0.024-0.043-0.015-0.082-0.038-0.113-0.068-0.032-0.030-0.057-0.066-0.073-0.105-0.018-0.043-0.026-0.089-0.026-0.134-0.001-0.046 0.009-0.092 0.028-0.135 0.018-0.039 0.044-0.075 0.078-0.105s0.075-0.053 0.12-0.068c0.049-0.016 0.102-0.025 0.155-0.024 0.049-0.001 0.098 0.006 0.144 0.022 0.040 0.015 0.076 0.035 0.108 0.060l-0.034 0.040c-0.002 0.003-0.005 0.005-0.009 0.007s-0.009 0.003-0.014 0.003c-0.005-0-0.010-0.002-0.015-0.004l-0.018-0.011-0.025-0.014c-0.011-0.005-0.022-0.010-0.034-0.013-0.015-0.005-0.030-0.008-0.046-0.011-0.020-0.003-0.040-0.005-0.060-0.004-0.038-0-0.076 0.006-0.111 0.018-0.033 0.011-0.063 0.029-0.087 0.051-0.025 0.023-0.044 0.051-0.057 0.081-0.014 0.034-0.021 0.070-0.021 0.106-0.001 0.037 0.006 0.073 0.021 0.108 0.012 0.030 0.031 0.057 0.056 0.080 0.023 0.022 0.051 0.039 0.083 0.050s0.068 0.017 0.103 0.017c0.020 0 0.041-0.001 0.061-0.003 0.033-0.003 0.065-0.013 0.093-0.029 0.014-0.008 0.027-0.017 0.040-0.027 0.005-0.004 0.012-0.007 0.019-0.007v0z"></path>
<path fill="#8e8f99" style="fill: var(--color1, #8e8f99)" d="M13.67 11.669c0.001 0.045-0.009 0.091-0.027 0.133-0.016 0.039-0.042 0.074-0.076 0.104s-0.074 0.053-0.119 0.068c-0.098 0.032-0.207 0.032-0.305 0-0.044-0.015-0.085-0.039-0.118-0.068s-0.059-0.066-0.076-0.105c-0.036-0.086-0.036-0.181 0-0.267 0.017-0.039 0.043-0.075 0.076-0.105 0.034-0.029 0.074-0.051 0.118-0.066 0.098-0.033 0.207-0.033 0.305 0 0.045 0.015 0.085 0.039 0.118 0.068s0.059 0.065 0.076 0.103c0.019 0.043 0.028 0.088 0.027 0.134zM13.565 11.669c0.001-0.036-0.006-0.073-0.019-0.107-0.011-0.030-0.030-0.057-0.054-0.080-0.024-0.022-0.053-0.039-0.085-0.051-0.071-0.023-0.15-0.023-0.222 0-0.032 0.011-0.061 0.029-0.085 0.051-0.025 0.023-0.043 0.050-0.054 0.080-0.026 0.070-0.026 0.145 0 0.214 0.011 0.030 0.030 0.057 0.054 0.080 0.024 0.022 0.053 0.039 0.085 0.050 0.072 0.023 0.15 0.023 0.222 0 0.032-0.011 0.061-0.028 0.085-0.050 0.024-0.023 0.042-0.051 0.054-0.080 0.013-0.035 0.020-0.071 0.019-0.107v0z"></path>
<path fill="#8e8f99" style="fill: var(--color1, #8e8f99)" d="M14.461 11.782l0.011 0.024c0.004-0.009 0.008-0.016 0.012-0.024s0.008-0.016 0.013-0.024l0.256-0.398c0.005-0.007 0.010-0.011 0.015-0.012 0.007-0.002 0.014-0.002 0.021-0.002h0.076v0.648h-0.090v-0.476c0-0.006 0-0.013 0-0.020s-0-0.015 0-0.022l-0.258 0.404c-0.003 0.006-0.009 0.011-0.015 0.015s-0.014 0.005-0.022 0.005h-0.015c-0.008 0-0.015-0.002-0.022-0.005s-0.012-0.009-0.015-0.015l-0.265-0.406c0 0.008 0 0.015 0 0.023s0 0.015 0 0.021v0.476h-0.087v-0.647h0.076c0.007-0 0.014 0 0.021 0.002s0.011 0.007 0.014 0.012l0.262 0.399c0.005 0.007 0.010 0.015 0.013 0.023v0z"></path>
<path fill="#8e8f99" style="fill: var(--color1, #8e8f99)" d="M15.426 11.749v0.243h-0.1v-0.647h0.224c0.042-0.001 0.084 0.004 0.125 0.014 0.032 0.008 0.063 0.022 0.088 0.040 0.022 0.018 0.039 0.039 0.050 0.063 0.012 0.026 0.018 0.054 0.017 0.083 0 0.028-0.006 0.057-0.019 0.083-0.012 0.025-0.031 0.047-0.054 0.065-0.026 0.019-0.056 0.034-0.089 0.043-0.039 0.011-0.080 0.016-0.121 0.015l-0.121-0.002zM15.426 11.68h0.121c0.026 0 0.053-0.003 0.078-0.010 0.021-0.006 0.040-0.015 0.056-0.028 0.015-0.012 0.027-0.027 0.034-0.043s0.012-0.036 0.012-0.054c0.001-0.018-0.002-0.036-0.010-0.053s-0.020-0.032-0.035-0.044c-0.038-0.026-0.087-0.038-0.135-0.035h-0.121v0.267z"></path>
<path fill="#8e8f99" style="fill: var(--color1, #8e8f99)" d="M16.775 11.993h-0.079c-0.008 0-0.016-0.002-0.022-0.006s-0.010-0.009-0.013-0.015l-0.068-0.157h-0.343l-0.071 0.157c-0.003 0.006-0.007 0.011-0.013 0.015s-0.014 0.007-0.023 0.006h-0.079l0.301-0.648h0.104l0.305 0.648zM16.278 11.752h0.283l-0.119-0.264c-0.009-0.020-0.017-0.040-0.023-0.061l-0.012 0.034c-0.004 0.010-0.008 0.020-0.011 0.027l-0.118 0.263z"></path>
<path fill="#8e8f99" style="fill: var(--color1, #8e8f99)" d="M17.209 11.348c0.006 0.003 0.011 0.007 0.015 0.012l0.439 0.488c0-0.008 0-0.015 0-0.023s0-0.015 0-0.021v-0.459h0.090v0.648h-0.050c-0.007 0-0.014-0.001-0.021-0.004s-0.012-0.007-0.016-0.012l-0.439-0.488c0 0.007 0 0.015 0 0.022s0 0.014 0 0.020v0.462h-0.090v-0.648h0.053c0.006-0 0.012 0.001 0.018 0.003v0z"></path>
<path fill="#8e8f99" style="fill: var(--color1, #8e8f99)" d="M18.493 11.735v0.257h-0.1v-0.257l-0.277-0.39h0.090c0.008-0 0.015 0.002 0.022 0.006s0.010 0.009 0.013 0.015l0.174 0.252c0.007 0.011 0.013 0.021 0.018 0.030s0.009 0.018 0.013 0.027l0.013-0.028c0.005-0.010 0.011-0.020 0.017-0.030l0.171-0.253c0.003-0.005 0.008-0.010 0.013-0.014s0.014-0.007 0.022-0.006h0.091l-0.278 0.392z"></path>
<path fill="#8e8f99" style="fill: var(--color1, #8e8f99)" d="M14.411 10.258c0.044 0.005 0.088 0.009 0.132 0.012 0.677-0.259 1.25-0.682 1.647-1.218s0.6-1.159 0.585-1.793l-0.746-0.638c0.152 0.675 0.081 1.372-0.205 2.014s-0.775 1.204-1.413 1.622v0z"></path>
<path fill="#8e8f99" style="fill: var(--color1, #8e8f99)" d="M14.145 10.228l0.020 0.003c0.682-0.417 1.202-0.999 1.492-1.67s0.339-1.403 0.138-2.098l-1.063-0.908c0.43 0.747 0.603 1.582 0.499 2.409s-0.481 1.612-1.086 2.264v0z"></path>
<path fill="#8e8f99" style="fill: var(--color1, #8e8f99)" d="M17.75 8.008c-0.181 0.696-0.619 1.324-1.251 1.791-0.184 0.137-0.383 0.259-0.594 0.364 0.514-0.129 0.987-0.357 1.381-0.667s0.701-0.693 0.895-1.12l-0.431-0.368z"></path>
<path fill="#8e8f99" style="fill: var(--color1, #8e8f99)" d="M17.581 7.905l-0.614-0.524c-0.012 0.598-0.211 1.182-0.576 1.692s-0.884 0.927-1.502 1.208h0.003c0.138-0 0.275-0.007 0.412-0.021 0.578-0.201 1.088-0.522 1.485-0.933s0.669-0.899 0.792-1.422v0z"></path>
<path fill="#8e8f99" style="fill: var(--color1, #8e8f99)" d="M14.234 5.172l-0.732-0.626c-0.655 0.216-1.218 0.596-1.615 1.090s-0.612 1.079-0.614 1.679v0c0.002 0.663 0.263 1.305 0.742 1.827s1.146 0.892 1.899 1.052c0.672-0.699 1.065-1.563 1.122-2.466s-0.223-1.798-0.802-2.556v0z"></path>
<path fill="#8e8f99" style="fill: var(--color1, #8e8f99)" d="M19.273 7.809c-0.003-0.786-0.369-1.539-1.020-2.095s-1.532-0.869-2.452-0.871v0c-0.425-0-0.847 0.067-1.243 0.198l4.483 3.831c0.153-0.339 0.232-0.699 0.232-1.062v0z"></path>
</symbol>
<symbol id="icon-Logo-1" viewBox="0 0 30 16">
<path fill="#8e8f99" style="fill: var(--color1, #8e8f99)" d="M14.318 1.696h-0.039c-0.060-0.004-0.12-0.005-0.18-0.007v0h-0.13c-0.113 0-0.229 0.003-0.344 0.009-0.009-0.001-0.017-0.001-0.026 0-1.041 0.059-2.061 0.319-3.005 0.766l-0.124 0.060v6.326l0.289-0.098c0.254-0.087 0.524-0.166 0.804-0.238 0.756-0.194 1.533-0.297 2.313-0.307v0.831c-0.103 0.001-0.204 0.004-0.304 0.009h-0.024c-0.601 0.033-1.197 0.124-1.779 0.273-0.738 0.185-1.451 0.462-2.12 0.826v-8.113c0.695-0.405 1.444-0.71 2.224-0.905 0.685-0.177 1.389-0.268 2.096-0.27h0.122c0.146 0.004 0.288 0.010 0.422 0.020 0.352 0.025 0.702 0.080 1.044 0.166v0.818c-0.333-0.078-0.671-0.129-1.012-0.153-0.007-0.001-0.014-0.001-0.021-0.002-0.071-0.006-0.141-0.012-0.207-0.012zM15.758 2.532c0.181 0.014 0.369 0.020 0.559 0.020 0.743-0.003 1.484-0.098 2.204-0.283 0.738-0.186 1.45-0.463 2.119-0.827v7.969c-0.696 0.405-1.445 0.71-2.225 0.905-0.685 0.176-1.389 0.267-2.096 0.27-0.536 0.004-1.070-0.059-1.59-0.187v-8.020c0.123 0.028 0.249 0.054 0.378 0.076 0.211 0.036 0.434 0.062 0.651 0.078zM19.813 2.594l-0.289 0.097c-0.266 0.089-0.534 0.169-0.804 0.24-0.785 0.202-1.592 0.305-2.402 0.308-0.189 0-0.362-0.005-0.53-0.016l-0.231-0.015v6.508l0.198 0.017c0.184 0.016 0.373 0.024 0.564 0.024 0.638-0.003 1.273-0.085 1.892-0.245 0.509-0.128 1.004-0.306 1.478-0.531l0.124-0.060v-6.328z"></path>
<path fill="#8e8f99" style="fill: var(--color1, #8e8f99)" d="M10.211 12.918c-0.042-0.043-0.092-0.077-0.147-0.099s-0.115-0.033-0.175-0.031c-0.064-0.001-0.127 0.011-0.186 0.035-0.054 0.022-0.103 0.054-0.145 0.095s-0.073 0.091-0.093 0.145c-0.023 0.057-0.034 0.118-0.033 0.179v1.084c-0.003 0.076 0.012 0.152 0.043 0.222 0.026 0.056 0.063 0.105 0.108 0.145 0.043 0.036 0.094 0.063 0.149 0.077 0.053 0.015 0.107 0.022 0.162 0.023 0.060 0.001 0.12-0.012 0.175-0.038 0.054-0.024 0.103-0.058 0.145-0.1 0.040-0.042 0.072-0.091 0.095-0.145s0.035-0.113 0.035-0.173v-0.121h-0.283v0.097c0.001 0.033-0.005 0.066-0.017 0.097-0.009 0.023-0.023 0.044-0.041 0.061-0.018 0.014-0.038 0.025-0.059 0.031-0.019 0.006-0.039 0.010-0.059 0.010-0.025 0.003-0.051-0.001-0.074-0.011s-0.044-0.026-0.059-0.047c-0.027-0.044-0.040-0.094-0.038-0.145v-1.011c-0.002-0.056 0.010-0.112 0.035-0.162 0.015-0.023 0.036-0.041 0.060-0.053s0.052-0.016 0.079-0.013c0.024-0.001 0.049 0.004 0.071 0.015s0.041 0.026 0.056 0.046c0.032 0.042 0.048 0.093 0.047 0.145v0.094h0.28v-0.11c0.001-0.065-0.011-0.129-0.035-0.19-0.021-0.057-0.053-0.109-0.095-0.153v0z"></path>
<path fill="#8e8f99" style="fill: var(--color1, #8e8f99)" d="M11.894 12.905c-0.090-0.076-0.204-0.118-0.322-0.119-0.058 0-0.115 0.011-0.169 0.031s-0.106 0.050-0.15 0.089c-0.047 0.042-0.084 0.094-0.11 0.152-0.029 0.066-0.043 0.138-0.041 0.21v1.040c-0.002 0.073 0.012 0.146 0.041 0.213 0.026 0.056 0.063 0.105 0.11 0.145 0.043 0.040 0.094 0.071 0.15 0.092 0.054 0.020 0.111 0.030 0.169 0.031s0.115-0.010 0.169-0.031c0.056-0.021 0.108-0.052 0.153-0.092s0.082-0.090 0.107-0.145c0.029-0.067 0.043-0.14 0.041-0.213v-1.040c0.001-0.072-0.013-0.144-0.041-0.21-0.025-0.057-0.062-0.109-0.107-0.152v0zM11.762 14.307c0.002 0.028-0.001 0.056-0.011 0.082s-0.025 0.050-0.045 0.069c-0.037 0.031-0.085 0.049-0.133 0.049s-0.096-0.017-0.133-0.049c-0.020-0.019-0.035-0.043-0.045-0.069s-0.014-0.054-0.011-0.082v-1.040c-0.002-0.028 0.001-0.056 0.011-0.082s0.025-0.050 0.045-0.069c0.037-0.031 0.085-0.049 0.133-0.049s0.096 0.017 0.133 0.049c0.020 0.019 0.035 0.043 0.045 0.069s0.014 0.054 0.011 0.082v1.040z"></path>
<path fill="#8e8f99" style="fill: var(--color1, #8e8f99)" d="M14.105 14.771v-1.968h-0.272l-0.358 1.042h-0.005l-0.361-1.042h-0.27v1.968h0.281v-1.197h0.005l0.275 0.846h0.14l0.278-0.846h0.005v1.197h0.281z"></path>
<path fill="#8e8f99" style="fill: var(--color1, #8e8f99)" d="M15.702 12.941c-0.043-0.049-0.098-0.086-0.159-0.108-0.066-0.021-0.135-0.032-0.204-0.031h-0.418v1.968h0.28v-0.769h0.145c0.088 0.004 0.175-0.015 0.253-0.054 0.064-0.035 0.117-0.087 0.154-0.15 0.032-0.052 0.054-0.111 0.064-0.171 0.011-0.074 0.016-0.149 0.015-0.224 0.003-0.095-0.006-0.189-0.027-0.281-0.019-0.068-0.054-0.13-0.103-0.181v0zM15.558 13.541c-0.001 0.036-0.010 0.071-0.026 0.102-0.016 0.030-0.041 0.054-0.072 0.069-0.042 0.019-0.087 0.027-0.132 0.025h-0.128v-0.669h0.145c0.044-0.002 0.087 0.006 0.126 0.025 0.029 0.017 0.052 0.042 0.066 0.073 0.015 0.035 0.024 0.072 0.025 0.11 0 0.041 0 0.085 0 0.131s0.003 0.093 0 0.135h-0.003z"></path>
<path fill="#8e8f99" style="fill: var(--color1, #8e8f99)" d="M17.031 12.803h-0.23l-0.434 1.968h0.28l0.082-0.423h0.382l0.082 0.423h0.28l-0.445-1.968zM16.772 14.080l0.138-0.713h0.005l0.137 0.713h-0.28z"></path>
<path fill="#8e8f99" style="fill: var(--color1, #8e8f99)" d="M18.843 13.989h-0.005l-0.424-1.186h-0.27v1.968h0.28v-1.184h0.006l0.429 1.184h0.264v-1.968h-0.28v1.186z"></path>
<path fill="#8e8f99" style="fill: var(--color1, #8e8f99)" d="M20.556 12.803l-0.226 0.782h-0.006l-0.226-0.782h-0.297l0.385 1.136v0.832h0.28v-0.832l0.385-1.136h-0.297z"></path>
<path fill="#8e8f99" style="fill: var(--color1, #8e8f99)" d="M9.429 15.327h0.135v0.379h0.092v-0.379h0.134v-0.078h-0.361v0.078z"></path>
<path fill="#8e8f99" style="fill: var(--color1, #8e8f99)" d="M10.565 15.249l-0.177 0.457h0.098l0.038-0.104h0.182l0.039 0.104h0.1l-0.181-0.457h-0.098zM10.55 15.525l0.062-0.169 0.062 0.169h-0.124z"></path>
<path fill="#8e8f99" style="fill: var(--color1, #8e8f99)" d="M11.688 15.538h0.106v0.059c-0.031 0.025-0.069 0.038-0.108 0.039-0.018 0.001-0.037-0.002-0.054-0.010s-0.032-0.019-0.043-0.034c-0.024-0.035-0.036-0.077-0.034-0.119 0-0.102 0.044-0.153 0.132-0.153 0.023-0.002 0.046 0.004 0.065 0.017s0.033 0.033 0.038 0.056l0.090-0.017c-0.020-0.089-0.084-0.134-0.194-0.134-0.059-0.002-0.116 0.019-0.16 0.059-0.023 0.023-0.041 0.050-0.052 0.081s-0.016 0.063-0.014 0.095c-0.003 0.063 0.018 0.124 0.059 0.171 0.022 0.023 0.049 0.041 0.079 0.053s0.062 0.016 0.094 0.014c0.072 0.002 0.141-0.024 0.194-0.073v-0.18h-0.198v0.077z"></path>
<path fill="#8e8f99" style="fill: var(--color1, #8e8f99)" d="M12.835 15.249h-0.093v0.457h0.32v-0.078h-0.228v-0.379z"></path>
<path fill="#8e8f99" style="fill: var(--color1, #8e8f99)" d="M13.805 15.249h-0.093v0.457h0.093v-0.457z"></path>
<path fill="#8e8f99" style="fill: var(--color1, #8e8f99)" d="M14.753 15.554l-0.187-0.305h-0.090v0.457h0.086v-0.299l0.184 0.299h0.092v-0.457h-0.085v0.305z"></path>
<path fill="#8e8f99" style="fill: var(--color1, #8e8f99)" d="M15.611 15.505h0.228v-0.078h-0.228v-0.1h0.245v-0.078h-0.338v0.457h0.347v-0.078h-0.254v-0.124z"></path>
<path fill="#8e8f99" style="fill: var(--color1, #8e8f99)" d="M17.689 15.429h-0.18v-0.18h-0.092v0.457h0.092v-0.2h0.18v0.2h0.092v-0.457h-0.092v0.18z"></path>
<path fill="#8e8f99" style="fill: var(--color1, #8e8f99)" d="M18.551 15.505h0.228v-0.078h-0.228v-0.1h0.246v-0.078h-0.338v0.457h0.346v-0.078h-0.254v-0.124z"></path>
<path fill="#8e8f99" style="fill: var(--color1, #8e8f99)" d="M19.721 15.505c0.079-0.012 0.12-0.054 0.12-0.127 0.002-0.019-0.001-0.039-0.009-0.057s-0.020-0.033-0.036-0.045c-0.041-0.021-0.088-0.030-0.134-0.027h-0.194v0.457h0.092v-0.191h0.018c0.020-0.001 0.039 0.002 0.057 0.010 0.013 0.008 0.025 0.020 0.033 0.033l0.1 0.145h0.11l-0.056-0.089c-0.025-0.044-0.059-0.082-0.101-0.11v0zM19.628 15.442h-0.068v-0.115h0.072c0.031-0.003 0.063 0.001 0.093 0.011 0.007 0.006 0.012 0.013 0.015 0.021s0.005 0.017 0.005 0.026c-0 0.009-0.003 0.018-0.007 0.026s-0.010 0.015-0.017 0.020c-0.030 0.009-0.062 0.013-0.093 0.011v0z"></path>
<path fill="#8e8f99" style="fill: var(--color1, #8e8f99)" d="M20.603 15.505h0.228v-0.078h-0.228v-0.1h0.246v-0.078h-0.338v0.457h0.347v-0.078h-0.254v-0.124z"></path>
</symbol>
<symbol id="icon-Logo" viewBox="0 0 30 16">
<path fill="#8e8f99" style="fill: var(--color1, #8e8f99)" d="M10.857 2l2.002 1.908-3.717-0.002v9.255h9.714v-3.539l2 1.905v-9.527h-10zM18.769 9.398l-5.677-5.409h5.677v5.409zM17.007 11.806h-6.327v-6.224h0.447v5.803h5.879v0.421zM11.942 14.875l-0.236-0.485h-0.195l0.342 0.642v0.374h0.176v-0.374l0.342-0.642h-0.194l-0.236 0.485zM12.811 14.39h0.042l0.384 1.016h-0.184l-0.082-0.238h-0.393l-0.082 0.238h-0.183l0.382-1.016h0.117zM12.625 15.029h0.297l-0.149-0.431-0.149 0.431zM13.852 14.86c-0.008-0.010-0.015-0.019-0.022-0.028-0.026-0.034-0.046-0.068-0.061-0.1s-0.022-0.066-0.022-0.1c0-0.053 0.011-0.099 0.033-0.137s0.053-0.067 0.093-0.088c0.040-0.021 0.087-0.031 0.14-0.031 0.052 0 0.096 0.010 0.133 0.031s0.066 0.048 0.086 0.082c0.020 0.034 0.031 0.071 0.031 0.112 0 0.032-0.006 0.061-0.017 0.088s-0.028 0.051-0.048 0.073c-0.020 0.022-0.044 0.043-0.071 0.062l-0.071 0.051 0.201 0.237c0.007-0.013 0.013-0.027 0.018-0.041 0.017-0.045 0.026-0.094 0.026-0.149h0.145c0 0.049-0.005 0.096-0.015 0.14s-0.024 0.085-0.045 0.123c-0.008 0.016-0.018 0.031-0.029 0.045l0.149 0.176h-0.195l-0.059-0.069c-0.032 0.024-0.067 0.043-0.104 0.057-0.049 0.018-0.102 0.027-0.158 0.027-0.067 0-0.126-0.012-0.175-0.037s-0.087-0.059-0.114-0.102c-0.027-0.043-0.040-0.093-0.040-0.149 0-0.041 0.009-0.078 0.026-0.109s0.041-0.061 0.070-0.088c0.027-0.025 0.059-0.050 0.094-0.075zM13.935 14.963l-0.021 0.015c-0.025 0.020-0.043 0.039-0.055 0.058s-0.019 0.035-0.023 0.050c-0.004 0.015-0.006 0.029-0.006 0.040 0 0.030 0.006 0.057 0.019 0.081s0.032 0.043 0.057 0.058c0.025 0.014 0.056 0.021 0.091 0.021 0.039 0 0.076-0.009 0.112-0.026 0.018-0.009 0.035-0.020 0.052-0.032l-0.226-0.266zM13.976 14.777l0.062-0.042c0.029-0.020 0.050-0.039 0.063-0.057s0.019-0.043 0.019-0.071c0-0.024-0.009-0.046-0.028-0.067s-0.045-0.031-0.079-0.031c-0.024 0-0.044 0.006-0.060 0.017s-0.029 0.025-0.037 0.043c-0.008 0.018-0.012 0.037-0.012 0.059s0.005 0.043 0.016 0.065c0.011 0.022 0.025 0.045 0.044 0.069 0.004 0.005 0.008 0.010 0.012 0.015zM15.752 15.075h-0.174c-0.005 0.044-0.016 0.082-0.032 0.112s-0.039 0.053-0.070 0.069c-0.031 0.016-0.071 0.024-0.121 0.024-0.041 0-0.076-0.008-0.105-0.024s-0.053-0.039-0.073-0.069c-0.019-0.030-0.033-0.065-0.042-0.107s-0.013-0.088-0.013-0.14v-0.086c0-0.054 0.005-0.102 0.015-0.144s0.025-0.078 0.045-0.107c0.020-0.029 0.045-0.051 0.075-0.066s0.065-0.022 0.105-0.022c0.049 0 0.088 0.008 0.119 0.025s0.053 0.040 0.068 0.071c0.016 0.031 0.026 0.069 0.031 0.112h0.174c-0.007-0.068-0.026-0.128-0.057-0.181s-0.074-0.094-0.13-0.123c-0.056-0.030-0.124-0.045-0.205-0.045-0.064 0-0.121 0.011-0.172 0.033s-0.094 0.055-0.13 0.097c-0.036 0.042-0.064 0.092-0.084 0.151s-0.029 0.125-0.029 0.198v0.084c0 0.073 0.009 0.139 0.028 0.198s0.047 0.11 0.082 0.151c0.036 0.041 0.079 0.073 0.129 0.096s0.107 0.033 0.17 0.033c0.082 0 0.151-0.015 0.209-0.045s0.102-0.070 0.133-0.122c0.032-0.052 0.050-0.111 0.056-0.178zM16.721 14.926v-0.056c0-0.077-0.010-0.145-0.031-0.206s-0.049-0.113-0.086-0.156c-0.037-0.043-0.082-0.076-0.133-0.098s-0.109-0.034-0.172-0.034c-0.062 0-0.119 0.011-0.171 0.034s-0.096 0.055-0.133 0.098c-0.037 0.043-0.066 0.095-0.087 0.156s-0.031 0.129-0.031 0.206v0.056c0 0.077 0.010 0.146 0.031 0.206s0.050 0.113 0.088 0.156c0.038 0.043 0.082 0.076 0.133 0.098s0.109 0.033 0.171 0.033c0.063 0 0.12-0.011 0.172-0.033s0.096-0.056 0.133-0.098c0.037-0.043 0.066-0.095 0.086-0.156s0.030-0.13 0.030-0.206zM16.546 14.868v0.057c0 0.057-0.006 0.107-0.017 0.151s-0.026 0.081-0.047 0.111c-0.021 0.030-0.046 0.052-0.077 0.068s-0.065 0.022-0.104 0.022c-0.039 0-0.073-0.007-0.103-0.022s-0.056-0.038-0.078-0.068c-0.021-0.030-0.038-0.067-0.049-0.111s-0.017-0.094-0.017-0.151v-0.057c0-0.057 0.006-0.107 0.017-0.15s0.027-0.080 0.048-0.11c0.021-0.030 0.047-0.052 0.077-0.067s0.065-0.023 0.103-0.023 0.073 0.008 0.104 0.023c0.031 0.015 0.056 0.037 0.077 0.067s0.037 0.066 0.048 0.11c0.011 0.043 0.017 0.093 0.017 0.15z"></path>
</symbol>
</defs>
</svg>
